<svg xmlns="http://www.w3.org/2000/svg" width="1100" height="600" viewBox="0 0 1100 600">
<title>Window construction for the graph neural network</title>

<style>
 text{font-family:"Helvetica Neue",Helvetica,Arial,"Liberation Sans",sans-serif;fill:#16233D}
 .pl{font-size:22px;font-weight:700}
 .h{font-size:15px;font-weight:600}
 .t{font-size:13px}
 .tb{font-size:13px;font-weight:600}
 .s{font-size:11px;fill:#6F8090}
 .sb{font-size:11px;font-weight:600}
 .m{font-size:13px;font-style:italic}
 .code{font-family:Menlo,Consolas,"Courier New",monospace;font-size:11.5px}
 .w{fill:#ffffff}
</style>

<defs><marker id="arr" viewBox="0 0 10 10" refX="9" refY="5" markerWidth="7" markerHeight="7" orient="auto-start-reverse"><path d="M0,0 L10,5 L0,10 z" fill="#6F8090"/></marker><marker id="arrd" viewBox="0 0 10 10" refX="9" refY="5" markerWidth="7" markerHeight="7" orient="auto-start-reverse"><path d="M0,0 L10,5 L0,10 z" fill="#16233D"/></marker></defs>
<rect width="1100" height="600" fill="#ffffff"/>
<text x="20" y="34" class="pl" text-anchor="start">a</text>
<text x="42" y="34" class="h" text-anchor="start">A window is opened around every phased variant with PE ≥ 0.8</text>
<circle cx="90" cy="130" r="10" fill="#1687C9" stroke="#1687C9" stroke-width="1.5"/>
<text x="90" y="134" class="s" text-anchor="middle" fill="#fff">r</text>
<circle cx="90" cy="200" r="10" fill="#DC2B23" stroke="#DC2B23" stroke-width="1.5"/>
<text x="90" y="204" class="s" text-anchor="middle" fill="#fff">a</text>
<text x="90" y="98" class="s" text-anchor="middle">−20</text>
<circle cx="160" cy="130" r="10" fill="#1687C9" stroke="#1687C9" stroke-width="1.5"/>
<text x="160" y="134" class="s" text-anchor="middle" fill="#fff">r</text>
<circle cx="160" cy="200" r="10" fill="#DC2B23" stroke="#DC2B23" stroke-width="1.5"/>
<text x="160" y="204" class="s" text-anchor="middle" fill="#fff">a</text>
<text x="160" y="98" class="s" text-anchor="middle"></text>
<circle cx="230" cy="130" r="10" fill="#1687C9" stroke="#1687C9" stroke-width="1.5"/>
<text x="230" y="134" class="s" text-anchor="middle" fill="#fff">r</text>
<circle cx="230" cy="200" r="10" fill="#DC2B23" stroke="#DC2B23" stroke-width="1.5"/>
<text x="230" y="204" class="s" text-anchor="middle" fill="#fff">a</text>
<text x="230" y="98" class="s" text-anchor="middle"></text>
<circle cx="300" cy="130" r="10" fill="#DC2B23" stroke="#DC2B23" stroke-width="1.5"/>
<text x="300" y="134" class="s" text-anchor="middle" fill="#fff">r</text>
<circle cx="300" cy="200" r="10" fill="#1687C9" stroke="#1687C9" stroke-width="1.5"/>
<text x="300" y="204" class="s" text-anchor="middle" fill="#fff">a</text>
<text x="300" y="98" class="s" text-anchor="middle"></text>
<circle cx="370" cy="130" r="10" fill="#1687C9" stroke="#1687C9" stroke-width="1.5"/>
<text x="370" y="134" class="s" text-anchor="middle" fill="#fff">r</text>
<circle cx="370" cy="200" r="10" fill="#DC2B23" stroke="#DC2B23" stroke-width="1.5"/>
<text x="370" y="204" class="s" text-anchor="middle" fill="#fff">a</text>
<text x="370" y="98" class="s" text-anchor="middle">-2</text>
<circle cx="440" cy="130" r="10" fill="#1687C9" stroke="#1687C9" stroke-width="1.5"/>
<text x="440" y="134" class="s" text-anchor="middle" fill="#fff">r</text>
<circle cx="440" cy="200" r="10" fill="#DC2B23" stroke="#DC2B23" stroke-width="1.5"/>
<text x="440" y="204" class="s" text-anchor="middle" fill="#fff">a</text>
<text x="440" y="98" class="s" text-anchor="middle">-1</text>
<rect x="488" y="106" width="44" height="118" rx="6" fill="#FCF1C7" stroke="none" stroke-width="1" opacity="1"/>
<circle cx="510" cy="130" r="10" fill="#1687C9" stroke="#1687C9" stroke-width="1.5"/>
<text x="510" y="134" class="s" text-anchor="middle" fill="#fff">r</text>
<circle cx="510" cy="200" r="10" fill="#DC2B23" stroke="#DC2B23" stroke-width="1.5"/>
<text x="510" y="204" class="s" text-anchor="middle" fill="#fff">a</text>
<text x="510" y="98" class="s" text-anchor="middle">c</text>
<circle cx="580" cy="130" r="10" fill="#1687C9" stroke="#1687C9" stroke-width="1.5"/>
<text x="580" y="134" class="s" text-anchor="middle" fill="#fff">r</text>
<circle cx="580" cy="200" r="10" fill="#DC2B23" stroke="#DC2B23" stroke-width="1.5"/>
<text x="580" y="204" class="s" text-anchor="middle" fill="#fff">a</text>
<text x="580" y="98" class="s" text-anchor="middle">+1</text>
<circle cx="650" cy="130" r="10" fill="#DC2B23" stroke="#DC2B23" stroke-width="1.5"/>
<text x="650" y="134" class="s" text-anchor="middle" fill="#fff">r</text>
<circle cx="650" cy="200" r="10" fill="#1687C9" stroke="#1687C9" stroke-width="1.5"/>
<text x="650" y="204" class="s" text-anchor="middle" fill="#fff">a</text>
<text x="650" y="98" class="s" text-anchor="middle">+2</text>
<circle cx="720" cy="130" r="10" fill="#1687C9" stroke="#1687C9" stroke-width="1.5"/>
<text x="720" y="134" class="s" text-anchor="middle" fill="#fff">r</text>
<circle cx="720" cy="200" r="10" fill="#DC2B23" stroke="#DC2B23" stroke-width="1.5"/>
<text x="720" y="204" class="s" text-anchor="middle" fill="#fff">a</text>
<text x="720" y="98" class="s" text-anchor="middle"></text>
<circle cx="790" cy="130" r="10" fill="#1687C9" stroke="#1687C9" stroke-width="1.5"/>
<text x="790" y="134" class="s" text-anchor="middle" fill="#fff">r</text>
<circle cx="790" cy="200" r="10" fill="#DC2B23" stroke="#DC2B23" stroke-width="1.5"/>
<text x="790" y="204" class="s" text-anchor="middle" fill="#fff">a</text>
<text x="790" y="98" class="s" text-anchor="middle"></text>
<circle cx="860" cy="130" r="10" fill="#1687C9" stroke="#1687C9" stroke-width="1.5"/>
<text x="860" y="134" class="s" text-anchor="middle" fill="#fff">r</text>
<circle cx="860" cy="200" r="10" fill="#DC2B23" stroke="#DC2B23" stroke-width="1.5"/>
<text x="860" y="204" class="s" text-anchor="middle" fill="#fff">a</text>
<text x="860" y="98" class="s" text-anchor="middle"></text>
<circle cx="930" cy="130" r="10" fill="#1687C9" stroke="#1687C9" stroke-width="1.5"/>
<text x="930" y="134" class="s" text-anchor="middle" fill="#fff">r</text>
<circle cx="930" cy="200" r="10" fill="#DC2B23" stroke="#DC2B23" stroke-width="1.5"/>
<text x="930" y="204" class="s" text-anchor="middle" fill="#fff">a</text>
<text x="930" y="98" class="s" text-anchor="middle">+20</text>
<path d="M98,124 Q125.0,82 152,124" stroke="#1687C9" stroke-width="1.2" fill="none" stroke-linecap="round" stroke-linejoin="round" opacity="0.5"/>
<path d="M98,206 Q125.0,248 152,206" stroke="#DC2B23" stroke-width="1.2" fill="none" stroke-linecap="round" stroke-linejoin="round" opacity="0.5"/>
<path d="M98,124 Q160.0,74 222,124" stroke="#1687C9" stroke-width="1.2" fill="none" stroke-linecap="round" stroke-linejoin="round" opacity="0.5"/>
<path d="M98,206 Q160.0,256 222,206" stroke="#DC2B23" stroke-width="1.2" fill="none" stroke-linecap="round" stroke-linejoin="round" opacity="0.5"/>
<path d="M98,124 Q195.0,66 292,124" stroke="#1687C9" stroke-width="1.2" fill="none" stroke-linecap="round" stroke-linejoin="round" opacity="0.5"/>
<path d="M98,206 Q195.0,264 292,206" stroke="#DC2B23" stroke-width="1.2" fill="none" stroke-linecap="round" stroke-linejoin="round" opacity="0.5"/>
<path d="M168,124 Q195.0,82 222,124" stroke="#1687C9" stroke-width="1.2" fill="none" stroke-linecap="round" stroke-linejoin="round" opacity="0.5"/>
<path d="M168,206 Q195.0,248 222,206" stroke="#DC2B23" stroke-width="1.2" fill="none" stroke-linecap="round" stroke-linejoin="round" opacity="0.5"/>
<path d="M168,124 Q230.0,74 292,124" stroke="#1687C9" stroke-width="1.2" fill="none" stroke-linecap="round" stroke-linejoin="round" opacity="0.5"/>
<path d="M168,206 Q230.0,256 292,206" stroke="#DC2B23" stroke-width="1.2" fill="none" stroke-linecap="round" stroke-linejoin="round" opacity="0.5"/>
<path d="M168,124 Q265.0,66 362,124" stroke="#1687C9" stroke-width="1.2" fill="none" stroke-linecap="round" stroke-linejoin="round" opacity="0.5"/>
<path d="M168,206 Q265.0,264 362,206" stroke="#DC2B23" stroke-width="1.2" fill="none" stroke-linecap="round" stroke-linejoin="round" opacity="0.5"/>
<path d="M238,124 Q265.0,82 292,124" stroke="#1687C9" stroke-width="1.2" fill="none" stroke-linecap="round" stroke-linejoin="round" opacity="0.5"/>
<path d="M238,206 Q265.0,248 292,206" stroke="#DC2B23" stroke-width="1.2" fill="none" stroke-linecap="round" stroke-linejoin="round" opacity="0.5"/>
<path d="M238,124 Q300.0,74 362,124" stroke="#1687C9" stroke-width="1.2" fill="none" stroke-linecap="round" stroke-linejoin="round" opacity="0.5"/>
<path d="M238,206 Q300.0,256 362,206" stroke="#DC2B23" stroke-width="1.2" fill="none" stroke-linecap="round" stroke-linejoin="round" opacity="0.5"/>
<path d="M238,124 Q335.0,66 432,124" stroke="#1687C9" stroke-width="1.2" fill="none" stroke-linecap="round" stroke-linejoin="round" opacity="0.5"/>
<path d="M238,206 Q335.0,264 432,206" stroke="#DC2B23" stroke-width="1.2" fill="none" stroke-linecap="round" stroke-linejoin="round" opacity="0.5"/>
<path d="M308,124 Q335.0,82 362,124" stroke="#1687C9" stroke-width="1.2" fill="none" stroke-linecap="round" stroke-linejoin="round" opacity="0.5"/>
<path d="M308,206 Q335.0,248 362,206" stroke="#DC2B23" stroke-width="1.2" fill="none" stroke-linecap="round" stroke-linejoin="round" opacity="0.5"/>
<path d="M308,124 Q370.0,74 432,124" stroke="#1687C9" stroke-width="1.2" fill="none" stroke-linecap="round" stroke-linejoin="round" opacity="0.5"/>
<path d="M308,206 Q370.0,256 432,206" stroke="#DC2B23" stroke-width="1.2" fill="none" stroke-linecap="round" stroke-linejoin="round" opacity="0.5"/>
<path d="M308,124 Q405.0,66 502,124" stroke="#1687C9" stroke-width="1.2" fill="none" stroke-linecap="round" stroke-linejoin="round" opacity="0.5"/>
<path d="M308,206 Q405.0,264 502,206" stroke="#DC2B23" stroke-width="1.2" fill="none" stroke-linecap="round" stroke-linejoin="round" opacity="0.5"/>
<path d="M378,124 Q405.0,82 432,124" stroke="#1687C9" stroke-width="1.2" fill="none" stroke-linecap="round" stroke-linejoin="round" opacity="0.5"/>
<path d="M378,206 Q405.0,248 432,206" stroke="#DC2B23" stroke-width="1.2" fill="none" stroke-linecap="round" stroke-linejoin="round" opacity="0.5"/>
<path d="M378,124 Q475.0,66 572,124" stroke="#1687C9" stroke-width="1.2" fill="none" stroke-linecap="round" stroke-linejoin="round" opacity="0.5"/>
<path d="M378,206 Q475.0,264 572,206" stroke="#DC2B23" stroke-width="1.2" fill="none" stroke-linecap="round" stroke-linejoin="round" opacity="0.5"/>
<path d="M448,124 Q475.0,82 502,124" stroke="#1687C9" stroke-width="1.2" fill="none" stroke-linecap="round" stroke-linejoin="round" opacity="0.5"/>
<path d="M448,206 Q475.0,248 502,206" stroke="#DC2B23" stroke-width="1.2" fill="none" stroke-linecap="round" stroke-linejoin="round" opacity="0.5"/>
<path d="M448,124 Q510.0,74 572,124" stroke="#1687C9" stroke-width="1.2" fill="none" stroke-linecap="round" stroke-linejoin="round" opacity="0.5"/>
<path d="M448,206 Q510.0,256 572,206" stroke="#DC2B23" stroke-width="1.2" fill="none" stroke-linecap="round" stroke-linejoin="round" opacity="0.5"/>
<path d="M518,124 Q545.0,82 572,124" stroke="#1687C9" stroke-width="1.2" fill="none" stroke-linecap="round" stroke-linejoin="round" opacity="0.5"/>
<path d="M518,206 Q545.0,248 572,206" stroke="#DC2B23" stroke-width="1.2" fill="none" stroke-linecap="round" stroke-linejoin="round" opacity="0.5"/>
<path d="M518,124 Q580.0,74 642,124" stroke="#1687C9" stroke-width="1.2" fill="none" stroke-linecap="round" stroke-linejoin="round" opacity="0.5"/>
<path d="M518,206 Q580.0,256 642,206" stroke="#DC2B23" stroke-width="1.2" fill="none" stroke-linecap="round" stroke-linejoin="round" opacity="0.5"/>
<path d="M588,124 Q615.0,82 642,124" stroke="#1687C9" stroke-width="1.2" fill="none" stroke-linecap="round" stroke-linejoin="round" opacity="0.5"/>
<path d="M588,206 Q615.0,248 642,206" stroke="#DC2B23" stroke-width="1.2" fill="none" stroke-linecap="round" stroke-linejoin="round" opacity="0.5"/>
<path d="M588,124 Q685.0,66 782,124" stroke="#1687C9" stroke-width="1.2" fill="none" stroke-linecap="round" stroke-linejoin="round" opacity="0.5"/>
<path d="M588,206 Q685.0,264 782,206" stroke="#DC2B23" stroke-width="1.2" fill="none" stroke-linecap="round" stroke-linejoin="round" opacity="0.5"/>
<path d="M658,124 Q685.0,82 712,124" stroke="#1687C9" stroke-width="1.2" fill="none" stroke-linecap="round" stroke-linejoin="round" opacity="0.5"/>
<path d="M658,206 Q685.0,248 712,206" stroke="#DC2B23" stroke-width="1.2" fill="none" stroke-linecap="round" stroke-linejoin="round" opacity="0.5"/>
<path d="M658,124 Q720.0,74 782,124" stroke="#1687C9" stroke-width="1.2" fill="none" stroke-linecap="round" stroke-linejoin="round" opacity="0.5"/>
<path d="M658,206 Q720.0,256 782,206" stroke="#DC2B23" stroke-width="1.2" fill="none" stroke-linecap="round" stroke-linejoin="round" opacity="0.5"/>
<path d="M658,124 Q755.0,66 852,124" stroke="#1687C9" stroke-width="1.2" fill="none" stroke-linecap="round" stroke-linejoin="round" opacity="0.5"/>
<path d="M658,206 Q755.0,264 852,206" stroke="#DC2B23" stroke-width="1.2" fill="none" stroke-linecap="round" stroke-linejoin="round" opacity="0.5"/>
<path d="M728,124 Q790.0,74 852,124" stroke="#1687C9" stroke-width="1.2" fill="none" stroke-linecap="round" stroke-linejoin="round" opacity="0.5"/>
<path d="M728,206 Q790.0,256 852,206" stroke="#DC2B23" stroke-width="1.2" fill="none" stroke-linecap="round" stroke-linejoin="round" opacity="0.5"/>
<path d="M728,124 Q825.0,66 922,124" stroke="#1687C9" stroke-width="1.2" fill="none" stroke-linecap="round" stroke-linejoin="round" opacity="0.5"/>
<path d="M728,206 Q825.0,264 922,206" stroke="#DC2B23" stroke-width="1.2" fill="none" stroke-linecap="round" stroke-linejoin="round" opacity="0.5"/>
<path d="M798,124 Q825.0,82 852,124" stroke="#1687C9" stroke-width="1.2" fill="none" stroke-linecap="round" stroke-linejoin="round" opacity="0.5"/>
<path d="M798,206 Q825.0,248 852,206" stroke="#DC2B23" stroke-width="1.2" fill="none" stroke-linecap="round" stroke-linejoin="round" opacity="0.5"/>
<path d="M798,124 Q860.0,74 922,124" stroke="#1687C9" stroke-width="1.2" fill="none" stroke-linecap="round" stroke-linejoin="round" opacity="0.5"/>
<path d="M798,206 Q860.0,256 922,206" stroke="#DC2B23" stroke-width="1.2" fill="none" stroke-linecap="round" stroke-linejoin="round" opacity="0.5"/>
<path d="M868,124 Q895.0,82 922,124" stroke="#1687C9" stroke-width="1.2" fill="none" stroke-linecap="round" stroke-linejoin="round" opacity="0.5"/>
<path d="M868,206 Q895.0,248 922,206" stroke="#DC2B23" stroke-width="1.2" fill="none" stroke-linecap="round" stroke-linejoin="round" opacity="0.5"/>
<line x1="448" y1="136" x2="572" y2="194" stroke="#6F8090" stroke-width="1.5" stroke-linecap="round" stroke-dasharray="3,3"/>
<text x="560" y="270" class="s" text-anchor="middle" fill="#E0A030">center zone: predictions kept</text>
<rect x="335.0" y="100" width="350" height="150" rx="6" fill="none" stroke="#E0A030" stroke-width="1.2" opacity="1" stroke-dasharray="4,3"/>
<text x="40" y="305" class="s" text-anchor="start">• up to 20 variants on each side (≤ 41 variants, ≤ 82 allele nodes; windows above 256 nodes are skipped)</text>
<text x="40" y="321" class="s" text-anchor="start">• nodes: one per allele; SNV, indel, SV and 5mC records are merged and sorted by position</text>
<text x="40" y="337" class="s" text-anchor="start">• edges: DOT edges with both endpoints in the window, symmetrized, plus one self-loop per node (mean of incident edge features)</text>
<text x="40" y="353" class="s" text-anchor="start">• predictions of the two allele nodes are averaged; a variant covered by several windows receives the mean</text>
<text x="20" y="400" class="pl" text-anchor="start">b</text>
<text x="42" y="400" class="h" text-anchor="start">Bridge vertex feature</text>
<line x1="60" y1="450" x2="105" y2="472" stroke="#6F8090" stroke-width="1.5" stroke-linecap="round"/>
<line x1="105" y1="472" x2="150" y2="450" stroke="#6F8090" stroke-width="1.5" stroke-linecap="round"/>
<line x1="150" y1="450" x2="195" y2="472" stroke="#6F8090" stroke-width="1.5" stroke-linecap="round"/>
<line x1="240" y1="450" x2="285" y2="472" stroke="#6F8090" stroke-width="1.5" stroke-linecap="round"/>
<line x1="285" y1="472" x2="330" y2="450" stroke="#6F8090" stroke-width="1.5" stroke-linecap="round"/>
<line x1="330" y1="450" x2="375" y2="472" stroke="#6F8090" stroke-width="1.5" stroke-linecap="round"/>
<line x1="375" y1="472" x2="420" y2="450" stroke="#6F8090" stroke-width="1.5" stroke-linecap="round"/>
<line x1="195" y1="472" x2="240" y2="450" stroke="#6F8090" stroke-width="1.5" stroke-linecap="round"/>
<circle cx="60" cy="450" r="7" fill="#fff" stroke="#6F8090" stroke-width="1.5"/>
<circle cx="105" cy="472" r="7" fill="#fff" stroke="#6F8090" stroke-width="1.5"/>
<circle cx="150" cy="450" r="7" fill="#fff" stroke="#6F8090" stroke-width="1.5"/>
<circle cx="195" cy="472" r="7" fill="#fff" stroke="#6F8090" stroke-width="1.5"/>
<circle cx="240" cy="450" r="7" fill="#E0A030" stroke="#E0A030" stroke-width="1.5"/>
<circle cx="285" cy="472" r="7" fill="#fff" stroke="#6F8090" stroke-width="1.5"/>
<circle cx="330" cy="450" r="7" fill="#fff" stroke="#6F8090" stroke-width="1.5"/>
<circle cx="375" cy="472" r="7" fill="#fff" stroke="#6F8090" stroke-width="1.5"/>
<circle cx="420" cy="450" r="7" fill="#fff" stroke="#6F8090" stroke-width="1.5"/>
<text x="240" y="500" class="s" text-anchor="middle" fill="#E0A030">removing this variant disconnects the window → is_bridge = 1</text>
<text x="600" y="400" class="pl" text-anchor="start">c</text>
<text x="622" y="400" class="h" text-anchor="start">Center-zone mask</text>
<text x="620" y="440" class="s" text-anchor="start">r = |pos − pos_c| / max offset in window</text>
<text x="620" y="458" class="s" text-anchor="start">kept if r ≤ min(1, 10 / round(20·r_max))</text>
<text x="620" y="476" class="s" text-anchor="start">so that predictions are read only where both</text>
<text x="620" y="492" class="s" text-anchor="start">sides of the variant are visible to the network.</text>
</svg>