<svg xmlns="http://www.w3.org/2000/svg" width="780" height="790" viewBox="0 0 780 790">
<title>Read-level allele observations and pre-graph filters</title>

<style>
 text{font-family:"Helvetica Neue",Helvetica,Arial,"Liberation Sans",sans-serif;fill:#16233D}
 .pl{font-size:14px;font-weight:700}
 .h{font-size:11px;font-weight:600}
 .t{font-size:10px}
 .tb{font-size:10px;font-weight:600}
 .s{font-size:9px;fill:#6E7C8C}
 .sb{font-size:9px;font-weight:600}
 .n{font-size:8.5px;font-weight:700}
 .m{font-size:10px;font-style:italic}
 .mb{font-size:10px;font-style:italic;font-weight:600}
 .eq{font-size:10.5px}
 .code{font-family:"SF Mono",Menlo,Consolas,"Courier New",monospace;font-size:9px}
</style>

<defs><marker id="arr" viewBox="0 0 10 10" refX="9" refY="5" markerWidth="6" markerHeight="6" orient="auto-start-reverse"><path d="M0,0 L10,5 L0,10 z" fill="#6E7C8C"/></marker><marker id="arrd" viewBox="0 0 10 10" refX="9" refY="5" markerWidth="6" markerHeight="6" orient="auto-start-reverse"><path d="M0,0 L10,5 L0,10 z" fill="#16233D"/></marker><marker id="arra" viewBox="0 0 10 10" refX="9" refY="5" markerWidth="6" markerHeight="6" orient="auto-start-reverse"><path d="M0,0 L10,5 L0,10 z" fill="#B8860B"/></marker></defs>
<rect width="780" height="790" fill="#ffffff"/>
<line x1="404.0" y1="18.0" x2="404.0" y2="300.0" stroke="#C7D1DB" stroke-width="0.8" stroke-linecap="round"/>
<text x="16.0" y="24.0" class="pl" text-anchor="start">a</text>
<text x="30.0" y="24.0" class="h" text-anchor="start">Allele observations from one alignment</text>
<text x="56.0" y="69.0" class="s" text-anchor="end">reference</text>
<line x1="66.0" y1="66.0" x2="384.0" y2="66.0" stroke="#16233D" stroke-width="1.2" stroke-linecap="round"/>
<line x1="78.0" y1="62.0" x2="78.0" y2="70.0" stroke="#16233D" stroke-width="1.2" stroke-linecap="round"/>
<text x="78.0" y="57.0" class="sb" text-anchor="middle" fill="#16233D">SNV</text>
<text x="78.0" y="81.0" class="s" text-anchor="middle">A/G</text>
<line x1="146.0" y1="62.0" x2="146.0" y2="70.0" stroke="#16233D" stroke-width="1.2" stroke-linecap="round"/>
<text x="146.0" y="57.0" class="sb" text-anchor="middle" fill="#16233D">indel</text>
<text x="146.0" y="81.0" class="s" text-anchor="middle">T/TAC</text>
<line x1="214.0" y1="62.0" x2="214.0" y2="70.0" stroke="#16233D" stroke-width="1.2" stroke-linecap="round"/>
<text x="214.0" y="57.0" class="sb" text-anchor="middle" fill="#16233D">SV</text>
<text x="214.0" y="81.0" class="s" text-anchor="middle">DEL 1.2 kb</text>
<line x1="282.0" y1="62.0" x2="282.0" y2="70.0" stroke="#16233D" stroke-width="1.2" stroke-linecap="round"/>
<text x="282.0" y="57.0" class="sb" text-anchor="middle" fill="#16233D">5mC</text>
<text x="282.0" y="81.0" class="s" text-anchor="middle">CpG</text>
<line x1="350.0" y1="62.0" x2="350.0" y2="70.0" stroke="#16233D" stroke-width="1.2" stroke-linecap="round"/>
<text x="350.0" y="57.0" class="sb" text-anchor="middle" fill="#16233D">SNV</text>
<text x="350.0" y="81.0" class="s" text-anchor="middle">C/T</text>
<text x="56.0" y="115.0" class="s" text-anchor="end">read</text>
<line x1="66.0" y1="112.0" x2="384.0" y2="112.0" stroke="#C7D1DB" stroke-width="5" stroke-linecap="round"/>
<circle cx="78.0" cy="112.0" r="8" fill="#fff" stroke="#DC2B23" stroke-width="1.8"/>
<text x="78.0" y="115.0" class="n" text-anchor="middle" fill="#DC2B23">G</text>
<text x="78.0" y="134.0" class="s" text-anchor="middle">Q 22</text>
<rect x="131.0" y="104.0" width="30.0" height="16.0" rx="8" fill="#1687C9" stroke="none" stroke-width="0.8" opacity="1"/>
<text x="146.0" y="115.0" class="n" text-anchor="middle" fill="#fff">+AC</text>
<text x="146.0" y="134.0" class="s" text-anchor="middle">CIGAR I</text>
<rect x="199.0" y="104.0" width="30.0" height="16.0" rx="8" fill="#1687C9" stroke="none" stroke-width="0.8" opacity="1"/>
<text x="214.0" y="115.0" class="n" text-anchor="middle" fill="#fff">DEL</text>
<text x="214.0" y="134.0" class="s" text-anchor="middle">CIGAR D</text>
<circle cx="282.0" cy="112.0" r="8" fill="#fff" stroke="#DC2B23" stroke-width="1.8"/>
<text x="282.0" y="115.0" class="n" text-anchor="middle" fill="#DC2B23">m</text>
<text x="282.0" y="134.0" class="s" text-anchor="middle">ML 0.93</text>
<circle cx="350.0" cy="112.0" r="8" fill="#fff" stroke="#1687C9" stroke-width="1.8"/>
<text x="350.0" y="115.0" class="n" text-anchor="middle" fill="#1687C9">C</text>
<text x="350.0" y="134.0" class="s" text-anchor="middle">Q 9</text>
<text x="16.0" y="158.0" class="sb" text-anchor="start" fill="#16233D">observation quality entering the edge weight</text>
<rect x="16.0" y="166.0" width="360.0" height="16.0" rx="0" fill="#E4EAF0" stroke="none" stroke-width="0.8" opacity="1"/>
<text x="22.0" y="177.0" class="sb" text-anchor="start" fill="#16233D">class</text>
<text x="64.0" y="177.0" class="sb" text-anchor="start" fill="#16233D">source</text>
<text x="194.0" y="177.0" class="sb" text-anchor="start" fill="#16233D">weight</text>
<rect x="16.0" y="182.0" width="360.0" height="16.0" rx="0" fill="#ffffff" stroke="none" stroke-width="0.8" opacity="1"/>
<text x="22.0" y="193.0" class="tb" text-anchor="start">SNV</text>
<text x="64.0" y="193.0" class="t" text-anchor="start">aligned base, Phred Q</text>
<text x="194.0" y="193.0" class="t" text-anchor="start">1 if both bases ≥ Q12, else 0.1</text>
<rect x="16.0" y="198.0" width="360.0" height="16.0" rx="0" fill="#F7F9FB" stroke="none" stroke-width="0.8" opacity="1"/>
<text x="22.0" y="209.0" class="tb" text-anchor="start">indel</text>
<text x="64.0" y="209.0" class="t" text-anchor="start">CIGAR I/D at the site</text>
<text x="194.0" y="209.0" class="t" text-anchor="start">1; 0.1 if in a tandem repeat</text>
<rect x="16.0" y="214.0" width="360.0" height="16.0" rx="0" fill="#ffffff" stroke="none" stroke-width="0.8" opacity="1"/>
<text x="22.0" y="225.0" class="tb" text-anchor="start">SV</text>
<text x="64.0" y="225.0" class="t" text-anchor="start">caller read list</text>
<text x="194.0" y="225.0" class="t" text-anchor="start">1 for ALT, 0.1 for REF</text>
<rect x="16.0" y="230.0" width="360.0" height="16.0" rx="0" fill="#F7F9FB" stroke="none" stroke-width="0.8" opacity="1"/>
<text x="22.0" y="241.0" class="tb" text-anchor="start">5mC</text>
<text x="64.0" y="241.0" class="t" text-anchor="start">modcall read lists</text>
<text x="194.0" y="241.0" class="t" text-anchor="start">1, strand matched</text>
<rect x="16.0" y="166.0" width="360.0" height="80.0" rx="0" fill="none" stroke="#C7D1DB" stroke-width="0.8" opacity="1"/>
<line x1="16.0" y1="182.0" x2="376.0" y2="182.0" stroke="#C7D1DB" stroke-width="0.8" stroke-linecap="butt"/>
<text x="16.0" y="268.0" class="pl" text-anchor="start">d</text>
<text x="30.0" y="268.0" class="h" text-anchor="start">Tandem-repeat indel flag</text>
<rect x="74.0" y="285.0" width="132.0" height="16.0" rx="2" fill="#FBF0D5" stroke="none" stroke-width="0.8" opacity="1"/>
<text x="64.0" y="299.0" class="code" text-anchor="middle" fill="#16233D">G</text>
<text x="88.0" y="299.0" class="code" text-anchor="middle" fill="#16233D">CA</text>
<text x="112.0" y="299.0" class="code" text-anchor="middle" fill="#16233D">CA</text>
<text x="136.0" y="299.0" class="code" text-anchor="middle" fill="#16233D">CA</text>
<text x="160.0" y="299.0" class="code" text-anchor="middle" fill="#16233D">CA</text>
<text x="184.0" y="299.0" class="code" text-anchor="middle" fill="#16233D">CA</text>
<text x="208.0" y="299.0" class="code" text-anchor="middle" fill="#16233D">T</text>
<text x="226.0" y="299.0" class="s" text-anchor="start">+CA / −CA inside the repeat</text>
<text x="16.0" y="318.0" class="sb" text-anchor="start" fill="#B8860B">→ the indel stays in the graph but votes with weight 0.1</text>
<text x="424.0" y="24.0" class="pl" text-anchor="start">b</text>
<text x="438.0" y="24.0" class="h" text-anchor="start">Homopolymer SNV filter (nanopore, --ont)</text>
<text x="436.0" y="65.0" class="s" text-anchor="end">ref</text>
<rect x="491.5" y="51.0" width="85.0" height="16.0" rx="2" fill="#FBF0D5" stroke="none" stroke-width="0.8" opacity="1"/>
<rect x="593.5" y="51.0" width="68.0" height="16.0" rx="2" fill="#FBF0D5" stroke="none" stroke-width="0.8" opacity="1"/>
<text x="466.0" y="65.0" class="code" text-anchor="middle" fill="#16233D">G</text>
<text x="483.0" y="65.0" class="code" text-anchor="middle" fill="#16233D">T</text>
<text x="500.0" y="65.0" class="code" text-anchor="middle" fill="#16233D">A</text>
<text x="517.0" y="65.0" class="code" text-anchor="middle" fill="#16233D">A</text>
<text x="534.0" y="65.0" class="code" text-anchor="middle" fill="#16233D">A</text>
<text x="551.0" y="65.0" class="code" text-anchor="middle" fill="#16233D">A</text>
<text x="568.0" y="65.0" class="code" text-anchor="middle" fill="#16233D">A</text>
<text x="585.0" y="65.0" class="code" text-anchor="middle" fill="#16233D">C</text>
<text x="602.0" y="65.0" class="code" text-anchor="middle" fill="#16233D">A</text>
<text x="619.0" y="65.0" class="code" text-anchor="middle" fill="#16233D">A</text>
<text x="636.0" y="65.0" class="code" text-anchor="middle" fill="#16233D">A</text>
<text x="653.0" y="65.0" class="code" text-anchor="middle" fill="#16233D">A</text>
<text x="670.0" y="65.0" class="code" text-anchor="middle" fill="#16233D">T</text>
<text x="687.0" y="65.0" class="code" text-anchor="middle" fill="#16233D">G</text>
<line x1="551.0" y1="71.0" x2="551.0" y2="84.0" stroke="#DC2B23" stroke-width="1.4" stroke-linecap="round"/>
<text x="551.0" y="95.0" class="sb" text-anchor="middle" fill="#DC2B23">SNV<tspan font-size="72%" baseline-shift="sub">1</tspan></text>
<line x1="585.0" y1="71.0" x2="585.0" y2="84.0" stroke="#DC2B23" stroke-width="1.4" stroke-linecap="round"/>
<text x="585.0" y="95.0" class="sb" text-anchor="middle" fill="#DC2B23">SNV<tspan font-size="72%" baseline-shift="sub">2</tspan></text>
<text x="424.0" y="116.0" class="s" text-anchor="start">runs ≥ 3 bp, SNVs ≤ 2 bp apart</text>
<text x="424.0" y="130.0" class="sb" text-anchor="start" fill="#B8860B">→ drop SNV<tspan font-size="72%" baseline-shift="sub">2</tspan> from every read</text>
<text x="424.0" y="162.0" class="pl" text-anchor="start">c</text>
<text x="438.0" y="162.0" class="h" text-anchor="start">Overlapping-alignment filter</text>
<line x1="470.0" y1="196.0" x2="604.0" y2="196.0" stroke="#1687C9" stroke-width="4.5" stroke-linecap="round"/>
<text x="464.0" y="199.0" class="sb" text-anchor="end" fill="#1687C9">A<tspan font-size="72%" baseline-shift="sub">1</tspan></text>
<line x1="562.0" y1="216.0" x2="756.0" y2="216.0" stroke="#1687C9" stroke-width="4.5" stroke-linecap="round"/>
<text x="556.0" y="219.0" class="sb" text-anchor="end" fill="#1687C9">A<tspan font-size="72%" baseline-shift="sub">2</tspan></text>
<rect x="562.0" y="188.0" width="42.0" height="36.0" rx="2" fill="#FBF0D5" stroke="none" stroke-width="0.8" opacity="0.85"/>
<text x="583.0" y="240.0" class="s" text-anchor="middle" fill="#B8860B">overlap</text>
<text x="424.0" y="262.0" class="s" text-anchor="start">overlap / combined span ≥ 0.2</text>
<text x="424.0" y="276.0" class="sb" text-anchor="start" fill="#B8860B">→ discard the shorter alignment A<tspan font-size="72%" baseline-shift="sub">1</tspan></text>
<line x1="16.0" y1="334.0" x2="764.0" y2="334.0" stroke="#C7D1DB" stroke-width="0.8" stroke-linecap="butt"/>
<text x="16.0" y="358.0" class="pl" text-anchor="start">e</text>
<text x="30.0" y="358.0" class="h" text-anchor="start">Copy-number-aware filter: interval detection</text>
<rect x="150.0" y="386.0" width="194.7" height="110.0" rx="2" fill="#FBF0D5" stroke="none" stroke-width="0.8" opacity="0.5"/>
<rect x="57.8" y="442.4" width="4.4" height="5.6" rx="0.5" fill="#1687C9" stroke="none" stroke-width="0.8" opacity="1"/>
<rect x="57.8" y="448.0" width="4.4" height="5.6" rx="0.5" fill="#DC2B23" stroke="none" stroke-width="0.8" opacity="1"/>
<rect x="64.5" y="442.4" width="4.4" height="5.6" rx="0.5" fill="#1687C9" stroke="none" stroke-width="0.8" opacity="1"/>
<rect x="64.5" y="448.0" width="4.4" height="5.6" rx="0.5" fill="#DC2B23" stroke="none" stroke-width="0.8" opacity="1"/>
<rect x="71.2" y="442.4" width="4.4" height="5.6" rx="0.5" fill="#1687C9" stroke="none" stroke-width="0.8" opacity="1"/>
<rect x="77.9" y="442.4" width="4.4" height="5.6" rx="0.5" fill="#1687C9" stroke="none" stroke-width="0.8" opacity="1"/>
<rect x="77.9" y="448.0" width="4.4" height="5.6" rx="0.5" fill="#DC2B23" stroke="none" stroke-width="0.8" opacity="1"/>
<rect x="84.7" y="442.4" width="4.4" height="5.6" rx="0.5" fill="#1687C9" stroke="none" stroke-width="0.8" opacity="1"/>
<rect x="84.7" y="448.0" width="4.4" height="5.6" rx="0.5" fill="#DC2B23" stroke="none" stroke-width="0.8" opacity="1"/>
<rect x="91.4" y="442.4" width="4.4" height="5.6" rx="0.5" fill="#1687C9" stroke="none" stroke-width="0.8" opacity="1"/>
<rect x="91.4" y="448.0" width="4.4" height="5.6" rx="0.5" fill="#DC2B23" stroke="none" stroke-width="0.8" opacity="1"/>
<rect x="104.8" y="448.0" width="4.4" height="5.6" rx="0.5" fill="#DC2B23" stroke="none" stroke-width="0.8" opacity="1"/>
<rect x="111.5" y="442.4" width="4.4" height="5.6" rx="0.5" fill="#1687C9" stroke="none" stroke-width="0.8" opacity="1"/>
<rect x="111.5" y="448.0" width="4.4" height="5.6" rx="0.5" fill="#DC2B23" stroke="none" stroke-width="0.8" opacity="1"/>
<rect x="118.2" y="442.4" width="4.4" height="5.6" rx="0.5" fill="#1687C9" stroke="none" stroke-width="0.8" opacity="1"/>
<rect x="124.9" y="442.4" width="4.4" height="5.6" rx="0.5" fill="#1687C9" stroke="none" stroke-width="0.8" opacity="1"/>
<rect x="131.7" y="442.4" width="4.4" height="5.6" rx="0.5" fill="#1687C9" stroke="none" stroke-width="0.8" opacity="1"/>
<rect x="131.7" y="448.0" width="4.4" height="5.6" rx="0.5" fill="#DC2B23" stroke="none" stroke-width="0.8" opacity="1"/>
<rect x="145.1" y="448.0" width="4.4" height="5.6" rx="0.5" fill="#DC2B23" stroke="none" stroke-width="0.8" opacity="1"/>
<rect x="151.8" y="397.6" width="4.4" height="50.4" rx="0.5" fill="#1687C9" stroke="none" stroke-width="0.8" opacity="1"/>
<rect x="158.5" y="442.4" width="4.4" height="5.6" rx="0.5" fill="#1687C9" stroke="none" stroke-width="0.8" opacity="1"/>
<rect x="158.5" y="448.0" width="4.4" height="5.6" rx="0.5" fill="#DC2B23" stroke="none" stroke-width="0.8" opacity="1"/>
<rect x="165.2" y="442.4" width="4.4" height="5.6" rx="0.5" fill="#1687C9" stroke="none" stroke-width="0.8" opacity="1"/>
<rect x="165.2" y="448.0" width="4.4" height="5.6" rx="0.5" fill="#DC2B23" stroke="none" stroke-width="0.8" opacity="1"/>
<rect x="171.9" y="442.4" width="4.4" height="5.6" rx="0.5" fill="#1687C9" stroke="none" stroke-width="0.8" opacity="1"/>
<rect x="171.9" y="448.0" width="4.4" height="5.6" rx="0.5" fill="#DC2B23" stroke="none" stroke-width="0.8" opacity="1"/>
<rect x="178.7" y="442.4" width="4.4" height="5.6" rx="0.5" fill="#1687C9" stroke="none" stroke-width="0.8" opacity="1"/>
<rect x="178.7" y="448.0" width="4.4" height="5.6" rx="0.5" fill="#DC2B23" stroke="none" stroke-width="0.8" opacity="1"/>
<rect x="185.4" y="442.4" width="4.4" height="5.6" rx="0.5" fill="#1687C9" stroke="none" stroke-width="0.8" opacity="1"/>
<rect x="185.4" y="448.0" width="4.4" height="5.6" rx="0.5" fill="#DC2B23" stroke="none" stroke-width="0.8" opacity="1"/>
<rect x="192.1" y="431.2" width="4.4" height="16.8" rx="0.5" fill="#1687C9" stroke="none" stroke-width="0.8" opacity="1"/>
<rect x="192.1" y="448.0" width="4.4" height="5.6" rx="0.5" fill="#DC2B23" stroke="none" stroke-width="0.8" opacity="1"/>
<rect x="198.8" y="442.4" width="4.4" height="5.6" rx="0.5" fill="#1687C9" stroke="none" stroke-width="0.8" opacity="1"/>
<rect x="198.8" y="448.0" width="4.4" height="5.6" rx="0.5" fill="#DC2B23" stroke="none" stroke-width="0.8" opacity="1"/>
<rect x="205.5" y="442.4" width="4.4" height="5.6" rx="0.5" fill="#1687C9" stroke="none" stroke-width="0.8" opacity="1"/>
<rect x="205.5" y="448.0" width="4.4" height="5.6" rx="0.5" fill="#DC2B23" stroke="none" stroke-width="0.8" opacity="1"/>
<rect x="212.2" y="442.4" width="4.4" height="5.6" rx="0.5" fill="#1687C9" stroke="none" stroke-width="0.8" opacity="1"/>
<rect x="212.2" y="448.0" width="4.4" height="5.6" rx="0.5" fill="#DC2B23" stroke="none" stroke-width="0.8" opacity="1"/>
<rect x="218.9" y="442.4" width="4.4" height="5.6" rx="0.5" fill="#1687C9" stroke="none" stroke-width="0.8" opacity="1"/>
<rect x="218.9" y="448.0" width="4.4" height="5.6" rx="0.5" fill="#DC2B23" stroke="none" stroke-width="0.8" opacity="1"/>
<rect x="225.7" y="442.4" width="4.4" height="5.6" rx="0.5" fill="#1687C9" stroke="none" stroke-width="0.8" opacity="1"/>
<rect x="225.7" y="448.0" width="4.4" height="5.6" rx="0.5" fill="#DC2B23" stroke="none" stroke-width="0.8" opacity="1"/>
<rect x="232.4" y="431.2" width="4.4" height="16.8" rx="0.5" fill="#1687C9" stroke="none" stroke-width="0.8" opacity="1"/>
<rect x="232.4" y="448.0" width="4.4" height="5.6" rx="0.5" fill="#DC2B23" stroke="none" stroke-width="0.8" opacity="1"/>
<rect x="239.1" y="442.4" width="4.4" height="5.6" rx="0.5" fill="#1687C9" stroke="none" stroke-width="0.8" opacity="1"/>
<rect x="239.1" y="448.0" width="4.4" height="5.6" rx="0.5" fill="#DC2B23" stroke="none" stroke-width="0.8" opacity="1"/>
<rect x="245.8" y="442.4" width="4.4" height="5.6" rx="0.5" fill="#1687C9" stroke="none" stroke-width="0.8" opacity="1"/>
<rect x="245.8" y="448.0" width="4.4" height="5.6" rx="0.5" fill="#DC2B23" stroke="none" stroke-width="0.8" opacity="1"/>
<rect x="252.5" y="442.4" width="4.4" height="5.6" rx="0.5" fill="#1687C9" stroke="none" stroke-width="0.8" opacity="1"/>
<rect x="252.5" y="448.0" width="4.4" height="5.6" rx="0.5" fill="#DC2B23" stroke="none" stroke-width="0.8" opacity="1"/>
<rect x="259.2" y="442.4" width="4.4" height="5.6" rx="0.5" fill="#1687C9" stroke="none" stroke-width="0.8" opacity="1"/>
<rect x="259.2" y="448.0" width="4.4" height="5.6" rx="0.5" fill="#DC2B23" stroke="none" stroke-width="0.8" opacity="1"/>
<rect x="265.9" y="431.2" width="4.4" height="16.8" rx="0.5" fill="#1687C9" stroke="none" stroke-width="0.8" opacity="1"/>
<rect x="265.9" y="448.0" width="4.4" height="5.6" rx="0.5" fill="#DC2B23" stroke="none" stroke-width="0.8" opacity="1"/>
<rect x="272.7" y="442.4" width="4.4" height="5.6" rx="0.5" fill="#1687C9" stroke="none" stroke-width="0.8" opacity="1"/>
<rect x="272.7" y="448.0" width="4.4" height="5.6" rx="0.5" fill="#DC2B23" stroke="none" stroke-width="0.8" opacity="1"/>
<rect x="279.4" y="442.4" width="4.4" height="5.6" rx="0.5" fill="#1687C9" stroke="none" stroke-width="0.8" opacity="1"/>
<rect x="279.4" y="448.0" width="4.4" height="5.6" rx="0.5" fill="#DC2B23" stroke="none" stroke-width="0.8" opacity="1"/>
<rect x="286.1" y="442.4" width="4.4" height="5.6" rx="0.5" fill="#1687C9" stroke="none" stroke-width="0.8" opacity="1"/>
<rect x="286.1" y="448.0" width="4.4" height="5.6" rx="0.5" fill="#DC2B23" stroke="none" stroke-width="0.8" opacity="1"/>
<rect x="292.8" y="442.4" width="4.4" height="5.6" rx="0.5" fill="#1687C9" stroke="none" stroke-width="0.8" opacity="1"/>
<rect x="292.8" y="448.0" width="4.4" height="5.6" rx="0.5" fill="#DC2B23" stroke="none" stroke-width="0.8" opacity="1"/>
<rect x="299.5" y="442.4" width="4.4" height="5.6" rx="0.5" fill="#1687C9" stroke="none" stroke-width="0.8" opacity="1"/>
<rect x="299.5" y="448.0" width="4.4" height="5.6" rx="0.5" fill="#DC2B23" stroke="none" stroke-width="0.8" opacity="1"/>
<rect x="306.2" y="442.4" width="4.4" height="5.6" rx="0.5" fill="#1687C9" stroke="none" stroke-width="0.8" opacity="1"/>
<rect x="306.2" y="448.0" width="4.4" height="5.6" rx="0.5" fill="#DC2B23" stroke="none" stroke-width="0.8" opacity="1"/>
<rect x="312.9" y="442.4" width="4.4" height="5.6" rx="0.5" fill="#1687C9" stroke="none" stroke-width="0.8" opacity="1"/>
<rect x="312.9" y="448.0" width="4.4" height="5.6" rx="0.5" fill="#DC2B23" stroke="none" stroke-width="0.8" opacity="1"/>
<rect x="319.7" y="442.4" width="4.4" height="5.6" rx="0.5" fill="#1687C9" stroke="none" stroke-width="0.8" opacity="1"/>
<rect x="319.7" y="448.0" width="4.4" height="33.6" rx="0.5" fill="#DC2B23" stroke="none" stroke-width="0.8" opacity="1"/>
<rect x="326.4" y="442.4" width="4.4" height="5.6" rx="0.5" fill="#1687C9" stroke="none" stroke-width="0.8" opacity="1"/>
<rect x="326.4" y="448.0" width="4.4" height="44.8" rx="0.5" fill="#DC2B23" stroke="none" stroke-width="0.8" opacity="1"/>
<rect x="333.1" y="442.4" width="4.4" height="5.6" rx="0.5" fill="#1687C9" stroke="none" stroke-width="0.8" opacity="1"/>
<rect x="333.1" y="448.0" width="4.4" height="28.0" rx="0.5" fill="#DC2B23" stroke="none" stroke-width="0.8" opacity="1"/>
<rect x="339.8" y="442.4" width="4.4" height="5.6" rx="0.5" fill="#1687C9" stroke="none" stroke-width="0.8" opacity="1"/>
<rect x="346.5" y="442.4" width="4.4" height="5.6" rx="0.5" fill="#1687C9" stroke="none" stroke-width="0.8" opacity="1"/>
<rect x="353.2" y="448.0" width="4.4" height="5.6" rx="0.5" fill="#DC2B23" stroke="none" stroke-width="0.8" opacity="1"/>
<rect x="359.9" y="442.4" width="4.4" height="5.6" rx="0.5" fill="#1687C9" stroke="none" stroke-width="0.8" opacity="1"/>
<rect x="373.4" y="442.4" width="4.4" height="5.6" rx="0.5" fill="#1687C9" stroke="none" stroke-width="0.8" opacity="1"/>
<rect x="380.1" y="442.4" width="4.4" height="5.6" rx="0.5" fill="#1687C9" stroke="none" stroke-width="0.8" opacity="1"/>
<rect x="380.1" y="448.0" width="4.4" height="5.6" rx="0.5" fill="#DC2B23" stroke="none" stroke-width="0.8" opacity="1"/>
<rect x="386.8" y="442.4" width="4.4" height="5.6" rx="0.5" fill="#1687C9" stroke="none" stroke-width="0.8" opacity="1"/>
<rect x="386.8" y="448.0" width="4.4" height="5.6" rx="0.5" fill="#DC2B23" stroke="none" stroke-width="0.8" opacity="1"/>
<rect x="400.2" y="442.4" width="4.4" height="5.6" rx="0.5" fill="#1687C9" stroke="none" stroke-width="0.8" opacity="1"/>
<rect x="400.2" y="448.0" width="4.4" height="5.6" rx="0.5" fill="#DC2B23" stroke="none" stroke-width="0.8" opacity="1"/>
<rect x="406.9" y="448.0" width="4.4" height="5.6" rx="0.5" fill="#DC2B23" stroke="none" stroke-width="0.8" opacity="1"/>
<rect x="413.7" y="442.4" width="4.4" height="5.6" rx="0.5" fill="#1687C9" stroke="none" stroke-width="0.8" opacity="1"/>
<rect x="420.4" y="442.4" width="4.4" height="5.6" rx="0.5" fill="#1687C9" stroke="none" stroke-width="0.8" opacity="1"/>
<rect x="420.4" y="448.0" width="4.4" height="5.6" rx="0.5" fill="#DC2B23" stroke="none" stroke-width="0.8" opacity="1"/>
<rect x="427.1" y="442.4" width="4.4" height="5.6" rx="0.5" fill="#1687C9" stroke="none" stroke-width="0.8" opacity="1"/>
<rect x="427.1" y="448.0" width="4.4" height="5.6" rx="0.5" fill="#DC2B23" stroke="none" stroke-width="0.8" opacity="1"/>
<line x1="54.0" y1="448.0" x2="442.0" y2="448.0" stroke="#16233D" stroke-width="1" stroke-linecap="round"/>
<text x="16.0" y="390.0" class="sb" text-anchor="start" fill="#1687C9">alignment starts</text>
<text x="16.0" y="401.0" class="s" text-anchor="start" fill="#1687C9">(front-clipped)</text>
<text x="16.0" y="478.0" class="sb" text-anchor="start" fill="#DC2B23">alignment ends</text>
<text x="16.0" y="489.0" class="s" text-anchor="start" fill="#DC2B23">(back-clipped)</text>
<text x="161.0" y="398.0" class="sb" text-anchor="start" fill="#B8860B">step: ≥ 5 front-clips</text>
<text x="241.3" y="410.0" class="sb" text-anchor="middle" fill="#B8860B">ramps: front-clips &gt; back-clips</text>
<line x1="194.3" y1="418.0" x2="194.3" y2="425.0" stroke="#B8860B" stroke-width="0.9" stroke-linecap="round" marker-end="url(#arra)"/>
<line x1="234.6" y1="418.0" x2="234.6" y2="425.0" stroke="#B8860B" stroke-width="0.9" stroke-linecap="round" marker-end="url(#arra)"/>
<line x1="268.1" y1="418.0" x2="268.1" y2="425.0" stroke="#B8860B" stroke-width="0.9" stroke-linecap="round" marker-end="url(#arra)"/>
<text x="346.0" y="482.0" class="sb" text-anchor="start" fill="#B8860B">pull-down closes</text>
<text x="234.6" y="508.0" class="s" text-anchor="middle" fill="#B8860B">candidate interval, extended while excess c &gt; 30; abandoned beyond 200 kb</text>
<text x="436.0" y="524.0" class="s" text-anchor="end">genomic position →</text>
<rect x="466.0" y="392.0" width="64.0" height="20.0" rx="10" fill="#F1F4F7" stroke="none" stroke-width="0.8" opacity="1"/>
<text x="498.0" y="406.0" class="sb" text-anchor="middle" fill="#16233D">scanning</text>
<rect x="596.0" y="372.0" width="50.0" height="20.0" rx="10" fill="#DCEAF6" stroke="none" stroke-width="0.8" opacity="1"/>
<text x="621.0" y="386.0" class="sb" text-anchor="middle" fill="#1687C9">step</text>
<rect x="596.0" y="412.0" width="50.0" height="20.0" rx="10" fill="#FBF0D5" stroke="none" stroke-width="0.8" opacity="1"/>
<text x="621.0" y="426.0" class="sb" text-anchor="middle" fill="#B8860B">ramp</text>
<rect x="694.0" y="392.0" width="60.0" height="20.0" rx="10" fill="#E4F1EA" stroke="none" stroke-width="0.8" opacity="1"/>
<text x="724.0" y="406.0" class="sb" text-anchor="middle" fill="#1F7A4D">interval</text>
<path d="M530,399 C566,399 566,382 594,382" stroke="#6E7C8C" stroke-width="1" fill="none" stroke-linecap="round" stroke-linejoin="round" opacity="1" marker-end="url(#arr)"/>
<path d="M530,405 C566,405 566,422 594,422" stroke="#6E7C8C" stroke-width="1" fill="none" stroke-linecap="round" stroke-linejoin="round" opacity="1" marker-end="url(#arr)"/>
<text x="562.0" y="368.0" class="s" text-anchor="middle">≥ 5 front-clips</text>
<text x="562.0" y="442.0" class="s" text-anchor="middle">front &gt; back</text>
<path d="M614,372 C608,352 634,352 628,372" stroke="#6E7C8C" stroke-width="1" fill="none" stroke-linecap="round" stroke-linejoin="round" opacity="1" marker-end="url(#arr)"/>
<path d="M614,432 C608,452 634,452 628,432" stroke="#6E7C8C" stroke-width="1" fill="none" stroke-linecap="round" stroke-linejoin="round" opacity="1" marker-end="url(#arr)"/>
<text x="621.0" y="346.0" class="s" text-anchor="middle">extend while c &gt; 30</text>
<text x="621.0" y="466.0" class="s" text-anchor="middle">extend while c &gt; 30</text>
<path d="M646,382 L692,398" stroke="#6E7C8C" stroke-width="1" fill="none" stroke-linecap="round" stroke-linejoin="round" opacity="1" marker-end="url(#arr)"/>
<path d="M646,422 L692,406" stroke="#6E7C8C" stroke-width="1" fill="none" stroke-linecap="round" stroke-linejoin="round" opacity="1" marker-end="url(#arr)"/>
<text x="669.0" y="370.0" class="s" text-anchor="middle">≥ n/2 back-clips</text>
<text x="669.0" y="444.0" class="s" text-anchor="middle">≥ c/4 back-clips</text>
<line x1="16.0" y1="520.0" x2="764.0" y2="520.0" stroke="#C7D1DB" stroke-width="0.8" stroke-linecap="butt"/>
<text x="16.0" y="544.0" class="pl" text-anchor="start">f</text>
<text x="30.0" y="544.0" class="h" text-anchor="start">Copy-number-aware filter: site removal</text>
<text x="22.0" y="578.0" class="eq" text-anchor="start" fill="#16233D">MR  =</text>
<text x="170.0" y="570.5" class="s" text-anchor="middle">mean R<tspan font-size="72%" baseline-shift="sub">m</tspan> (ALT)</text>
<line x1="92.0" y1="574.0" x2="248.0" y2="574.0" stroke="#16233D" stroke-width="0.8" stroke-linecap="butt"/>
<text x="170.0" y="584.5" class="s" text-anchor="middle">mean R<tspan font-size="72%" baseline-shift="sub">m</tspan> (REF) + mean R<tspan font-size="72%" baseline-shift="sub">m</tspan> (ALT)</text>
<text x="262.0" y="578.0" class="tb" text-anchor="start" fill="#B8860B">≥ 0.7  →  remove the site from every read</text>
<text x="16.0" y="598.0" class="s" text-anchor="start">R<tspan font-size="72%" baseline-shift="sub">m</tspan> = alternate alleles a read carries at other sites inside the interval</text>
<text x="16.0" y="622.0" class="sb" text-anchor="start" fill="#16233D">true heterozygous site</text>
<text x="38.0" y="641.0" class="s" text-anchor="end" fill="#1687C9">REF</text>
<line x1="44.0" y1="638.0" x2="266.0" y2="638.0" stroke="#C7D1DB" stroke-width="4" stroke-linecap="round"/>
<circle cx="155.0" cy="638.0" r="5" fill="#1687C9" stroke="#1687C9" stroke-width="0"/>
<line x1="58.0" y1="633.0" x2="58.0" y2="643.0" stroke="#C7D1DB" stroke-width="1" stroke-linecap="round"/>
<line x1="102.0" y1="633.0" x2="102.0" y2="643.0" stroke="#C7D1DB" stroke-width="1" stroke-linecap="round"/>
<line x1="190.0" y1="633.0" x2="190.0" y2="643.0" stroke="#C7D1DB" stroke-width="1" stroke-linecap="round"/>
<line x1="234.0" y1="633.0" x2="234.0" y2="643.0" stroke="#C7D1DB" stroke-width="1" stroke-linecap="round"/>
<text x="38.0" y="656.0" class="s" text-anchor="end" fill="#1687C9">REF</text>
<line x1="44.0" y1="653.0" x2="266.0" y2="653.0" stroke="#C7D1DB" stroke-width="4" stroke-linecap="round"/>
<circle cx="155.0" cy="653.0" r="5" fill="#1687C9" stroke="#1687C9" stroke-width="0"/>
<line x1="58.0" y1="648.0" x2="58.0" y2="658.0" stroke="#C7D1DB" stroke-width="1" stroke-linecap="round"/>
<line x1="102.0" y1="648.0" x2="102.0" y2="658.0" stroke="#C7D1DB" stroke-width="1" stroke-linecap="round"/>
<line x1="190.0" y1="648.0" x2="190.0" y2="658.0" stroke="#C7D1DB" stroke-width="1" stroke-linecap="round"/>
<line x1="234.0" y1="648.0" x2="234.0" y2="658.0" stroke="#DC2B23" stroke-width="1.4" stroke-linecap="round"/>
<text x="38.0" y="671.0" class="s" text-anchor="end" fill="#1687C9">REF</text>
<line x1="44.0" y1="668.0" x2="266.0" y2="668.0" stroke="#C7D1DB" stroke-width="4" stroke-linecap="round"/>
<circle cx="155.0" cy="668.0" r="5" fill="#1687C9" stroke="#1687C9" stroke-width="0"/>
<line x1="58.0" y1="663.0" x2="58.0" y2="673.0" stroke="#C7D1DB" stroke-width="1" stroke-linecap="round"/>
<line x1="102.0" y1="663.0" x2="102.0" y2="673.0" stroke="#DC2B23" stroke-width="1.4" stroke-linecap="round"/>
<line x1="190.0" y1="663.0" x2="190.0" y2="673.0" stroke="#C7D1DB" stroke-width="1" stroke-linecap="round"/>
<line x1="234.0" y1="663.0" x2="234.0" y2="673.0" stroke="#C7D1DB" stroke-width="1" stroke-linecap="round"/>
<text x="38.0" y="686.0" class="s" text-anchor="end" fill="#DC2B23">ALT</text>
<line x1="44.0" y1="683.0" x2="266.0" y2="683.0" stroke="#C7D1DB" stroke-width="4" stroke-linecap="round"/>
<circle cx="155.0" cy="683.0" r="5" fill="#DC2B23" stroke="#DC2B23" stroke-width="0"/>
<line x1="58.0" y1="678.0" x2="58.0" y2="688.0" stroke="#C7D1DB" stroke-width="1" stroke-linecap="round"/>
<line x1="102.0" y1="678.0" x2="102.0" y2="688.0" stroke="#C7D1DB" stroke-width="1" stroke-linecap="round"/>
<line x1="190.0" y1="678.0" x2="190.0" y2="688.0" stroke="#DC2B23" stroke-width="1.4" stroke-linecap="round"/>
<line x1="234.0" y1="678.0" x2="234.0" y2="688.0" stroke="#C7D1DB" stroke-width="1" stroke-linecap="round"/>
<text x="38.0" y="701.0" class="s" text-anchor="end" fill="#DC2B23">ALT</text>
<line x1="44.0" y1="698.0" x2="266.0" y2="698.0" stroke="#C7D1DB" stroke-width="4" stroke-linecap="round"/>
<circle cx="155.0" cy="698.0" r="5" fill="#DC2B23" stroke="#DC2B23" stroke-width="0"/>
<line x1="58.0" y1="693.0" x2="58.0" y2="703.0" stroke="#DC2B23" stroke-width="1.4" stroke-linecap="round"/>
<line x1="102.0" y1="693.0" x2="102.0" y2="703.0" stroke="#C7D1DB" stroke-width="1" stroke-linecap="round"/>
<line x1="190.0" y1="693.0" x2="190.0" y2="703.0" stroke="#C7D1DB" stroke-width="1" stroke-linecap="round"/>
<line x1="234.0" y1="693.0" x2="234.0" y2="703.0" stroke="#C7D1DB" stroke-width="1" stroke-linecap="round"/>
<text x="38.0" y="716.0" class="s" text-anchor="end" fill="#DC2B23">ALT</text>
<line x1="44.0" y1="713.0" x2="266.0" y2="713.0" stroke="#C7D1DB" stroke-width="4" stroke-linecap="round"/>
<circle cx="155.0" cy="713.0" r="5" fill="#DC2B23" stroke="#DC2B23" stroke-width="0"/>
<line x1="58.0" y1="708.0" x2="58.0" y2="718.0" stroke="#C7D1DB" stroke-width="1" stroke-linecap="round"/>
<line x1="102.0" y1="708.0" x2="102.0" y2="718.0" stroke="#C7D1DB" stroke-width="1" stroke-linecap="round"/>
<line x1="190.0" y1="708.0" x2="190.0" y2="718.0" stroke="#C7D1DB" stroke-width="1" stroke-linecap="round"/>
<line x1="234.0" y1="708.0" x2="234.0" y2="718.0" stroke="#C7D1DB" stroke-width="1" stroke-linecap="round"/>
<text x="274.0" y="664.0" class="tb" text-anchor="start" fill="#1F7A4D">MR = 0.52</text>
<text x="274.0" y="678.0" class="sb" text-anchor="start" fill="#1F7A4D">kept</text>
<text x="400.0" y="622.0" class="sb" text-anchor="start" fill="#16233D">paralogue-specific difference</text>
<text x="422.0" y="641.0" class="s" text-anchor="end" fill="#1687C9">REF</text>
<line x1="428.0" y1="638.0" x2="650.0" y2="638.0" stroke="#C7D1DB" stroke-width="4" stroke-linecap="round"/>
<circle cx="539.0" cy="638.0" r="5" fill="#1687C9" stroke="#1687C9" stroke-width="0"/>
<line x1="442.0" y1="633.0" x2="442.0" y2="643.0" stroke="#C7D1DB" stroke-width="1" stroke-linecap="round"/>
<line x1="486.0" y1="633.0" x2="486.0" y2="643.0" stroke="#C7D1DB" stroke-width="1" stroke-linecap="round"/>
<line x1="574.0" y1="633.0" x2="574.0" y2="643.0" stroke="#C7D1DB" stroke-width="1" stroke-linecap="round"/>
<line x1="618.0" y1="633.0" x2="618.0" y2="643.0" stroke="#C7D1DB" stroke-width="1" stroke-linecap="round"/>
<text x="422.0" y="656.0" class="s" text-anchor="end" fill="#1687C9">REF</text>
<line x1="428.0" y1="653.0" x2="650.0" y2="653.0" stroke="#C7D1DB" stroke-width="4" stroke-linecap="round"/>
<circle cx="539.0" cy="653.0" r="5" fill="#1687C9" stroke="#1687C9" stroke-width="0"/>
<line x1="442.0" y1="648.0" x2="442.0" y2="658.0" stroke="#C7D1DB" stroke-width="1" stroke-linecap="round"/>
<line x1="486.0" y1="648.0" x2="486.0" y2="658.0" stroke="#C7D1DB" stroke-width="1" stroke-linecap="round"/>
<line x1="574.0" y1="648.0" x2="574.0" y2="658.0" stroke="#C7D1DB" stroke-width="1" stroke-linecap="round"/>
<line x1="618.0" y1="648.0" x2="618.0" y2="658.0" stroke="#C7D1DB" stroke-width="1" stroke-linecap="round"/>
<text x="422.0" y="671.0" class="s" text-anchor="end" fill="#1687C9">REF</text>
<line x1="428.0" y1="668.0" x2="650.0" y2="668.0" stroke="#C7D1DB" stroke-width="4" stroke-linecap="round"/>
<circle cx="539.0" cy="668.0" r="5" fill="#1687C9" stroke="#1687C9" stroke-width="0"/>
<line x1="442.0" y1="663.0" x2="442.0" y2="673.0" stroke="#C7D1DB" stroke-width="1" stroke-linecap="round"/>
<line x1="486.0" y1="663.0" x2="486.0" y2="673.0" stroke="#DC2B23" stroke-width="1.4" stroke-linecap="round"/>
<line x1="574.0" y1="663.0" x2="574.0" y2="673.0" stroke="#C7D1DB" stroke-width="1" stroke-linecap="round"/>
<line x1="618.0" y1="663.0" x2="618.0" y2="673.0" stroke="#C7D1DB" stroke-width="1" stroke-linecap="round"/>
<text x="422.0" y="686.0" class="s" text-anchor="end" fill="#DC2B23">ALT</text>
<line x1="428.0" y1="683.0" x2="650.0" y2="683.0" stroke="#C7D1DB" stroke-width="4" stroke-linecap="round"/>
<circle cx="539.0" cy="683.0" r="5" fill="#DC2B23" stroke="#DC2B23" stroke-width="0"/>
<line x1="442.0" y1="678.0" x2="442.0" y2="688.0" stroke="#DC2B23" stroke-width="1.4" stroke-linecap="round"/>
<line x1="486.0" y1="678.0" x2="486.0" y2="688.0" stroke="#DC2B23" stroke-width="1.4" stroke-linecap="round"/>
<line x1="574.0" y1="678.0" x2="574.0" y2="688.0" stroke="#DC2B23" stroke-width="1.4" stroke-linecap="round"/>
<line x1="618.0" y1="678.0" x2="618.0" y2="688.0" stroke="#DC2B23" stroke-width="1.4" stroke-linecap="round"/>
<text x="422.0" y="701.0" class="s" text-anchor="end" fill="#DC2B23">ALT</text>
<line x1="428.0" y1="698.0" x2="650.0" y2="698.0" stroke="#C7D1DB" stroke-width="4" stroke-linecap="round"/>
<circle cx="539.0" cy="698.0" r="5" fill="#DC2B23" stroke="#DC2B23" stroke-width="0"/>
<line x1="442.0" y1="693.0" x2="442.0" y2="703.0" stroke="#DC2B23" stroke-width="1.4" stroke-linecap="round"/>
<line x1="486.0" y1="693.0" x2="486.0" y2="703.0" stroke="#C7D1DB" stroke-width="1" stroke-linecap="round"/>
<line x1="574.0" y1="693.0" x2="574.0" y2="703.0" stroke="#DC2B23" stroke-width="1.4" stroke-linecap="round"/>
<line x1="618.0" y1="693.0" x2="618.0" y2="703.0" stroke="#DC2B23" stroke-width="1.4" stroke-linecap="round"/>
<text x="422.0" y="716.0" class="s" text-anchor="end" fill="#DC2B23">ALT</text>
<line x1="428.0" y1="713.0" x2="650.0" y2="713.0" stroke="#C7D1DB" stroke-width="4" stroke-linecap="round"/>
<circle cx="539.0" cy="713.0" r="5" fill="#DC2B23" stroke="#DC2B23" stroke-width="0"/>
<line x1="442.0" y1="708.0" x2="442.0" y2="718.0" stroke="#C7D1DB" stroke-width="1" stroke-linecap="round"/>
<line x1="486.0" y1="708.0" x2="486.0" y2="718.0" stroke="#DC2B23" stroke-width="1.4" stroke-linecap="round"/>
<line x1="574.0" y1="708.0" x2="574.0" y2="718.0" stroke="#DC2B23" stroke-width="1.4" stroke-linecap="round"/>
<line x1="618.0" y1="708.0" x2="618.0" y2="718.0" stroke="#DC2B23" stroke-width="1.4" stroke-linecap="round"/>
<text x="658.0" y="664.0" class="tb" text-anchor="start" fill="#B8860B">MR = 0.87</text>
<text x="658.0" y="678.0" class="sb" text-anchor="start" fill="#B8860B">removed</text>
<text x="16.0" y="736.0" class="s" text-anchor="start">grey ticks, reference allele</text>
<text x="162.0" y="736.0" class="s" text-anchor="start" fill="#DC2B23">red ticks, alternate allele at another heterozygous site</text>
<line x1="16.0" y1="752.0" x2="764.0" y2="752.0" stroke="#C7D1DB" stroke-width="0.8" stroke-linecap="butt"/>
<text x="16.0" y="772.0" class="pl" text-anchor="start">g</text>
<text x="30.0" y="772.0" class="h" text-anchor="start">Order of operations</text>
<rect x="168.0" y="762.0" width="53.2" height="17.0" rx="8" fill="#E4F1EA" stroke="none" stroke-width="0.8" opacity="1"/>
<text x="194.6" y="774.0" class="s" text-anchor="middle" fill="#1F7A4D">extract</text>
<line x1="224.2" y1="770.5" x2="232.2" y2="770.5" stroke="#C7D1DB" stroke-width="1" stroke-linecap="round" marker-end="url(#arr)"/>
<rect x="235.2" y="762.0" width="92.4" height="17.0" rx="8" fill="#F1F4F7" stroke="none" stroke-width="0.8" opacity="1"/>
<text x="281.4" y="774.0" class="s" text-anchor="middle" fill="#16233D">b  homopolymer</text>
<line x1="330.6" y1="770.5" x2="338.6" y2="770.5" stroke="#C7D1DB" stroke-width="1" stroke-linecap="round" marker-end="url(#arr)"/>
<rect x="341.6" y="762.0" width="70.0" height="17.0" rx="8" fill="#F1F4F7" stroke="none" stroke-width="0.8" opacity="1"/>
<text x="376.6" y="774.0" class="s" text-anchor="middle" fill="#16233D">c  overlap</text>
<line x1="414.6" y1="770.5" x2="422.6" y2="770.5" stroke="#C7D1DB" stroke-width="1" stroke-linecap="round" marker-end="url(#arr)"/>
<rect x="425.6" y="762.0" width="92.4" height="17.0" rx="8" fill="#FBF0D5" stroke="none" stroke-width="0.8" opacity="1"/>
<text x="471.8" y="774.0" class="s" text-anchor="middle" fill="#B8860B">d  repeat flag</text>
<line x1="521.0" y1="770.5" x2="529.0" y2="770.5" stroke="#C7D1DB" stroke-width="1" stroke-linecap="round" marker-end="url(#arr)"/>
<rect x="532.0" y="762.0" width="103.6" height="17.0" rx="8" fill="#F1F4F7" stroke="none" stroke-width="0.8" opacity="1"/>
<text x="583.8" y="774.0" class="s" text-anchor="middle" fill="#16233D">e–f  copy number</text>
<line x1="638.6" y1="770.5" x2="646.6" y2="770.5" stroke="#C7D1DB" stroke-width="1" stroke-linecap="round" marker-end="url(#arr)"/>
<rect x="649.6" y="762.0" width="42.0" height="17.0" rx="8" fill="#E4F1EA" stroke="none" stroke-width="0.8" opacity="1"/>
<text x="670.6" y="774.0" class="s" text-anchor="middle" fill="#1F7A4D">graph</text>
</svg>