<svg xmlns="http://www.w3.org/2000/svg" width="780" height="408" viewBox="0 0 780 408">
<title>Window construction for the graph neural network</title>

<style>
 text{font-family:"Helvetica Neue",Helvetica,Arial,"Liberation Sans",sans-serif;fill:#16233D}
 .pl{font-size:14px;font-weight:700}
 .h{font-size:11px;font-weight:600}
 .t{font-size:10px}
 .tb{font-size:10px;font-weight:600}
 .s{font-size:9px;fill:#6E7C8C}
 .sb{font-size:9px;font-weight:600}
 .n{font-size:8.5px;font-weight:700}
 .m{font-size:10px;font-style:italic}
 .mb{font-size:10px;font-style:italic;font-weight:600}
 .eq{font-size:10.5px}
 .code{font-family:"SF Mono",Menlo,Consolas,"Courier New",monospace;font-size:9px}
</style>

<defs><marker id="arr" viewBox="0 0 10 10" refX="9" refY="5" markerWidth="6" markerHeight="6" orient="auto-start-reverse"><path d="M0,0 L10,5 L0,10 z" fill="#6E7C8C"/></marker><marker id="arrd" viewBox="0 0 10 10" refX="9" refY="5" markerWidth="6" markerHeight="6" orient="auto-start-reverse"><path d="M0,0 L10,5 L0,10 z" fill="#16233D"/></marker><marker id="arra" viewBox="0 0 10 10" refX="9" refY="5" markerWidth="6" markerHeight="6" orient="auto-start-reverse"><path d="M0,0 L10,5 L0,10 z" fill="#B8860B"/></marker></defs>
<rect width="780" height="408" fill="#ffffff"/>
<text x="16.0" y="24.0" class="pl" text-anchor="start">a</text>
<text x="30.0" y="24.0" class="h" text-anchor="start">A window is opened around every phased variant with PE ≥ 0.8</text>
<rect x="252.8" y="84.0" width="270.4" height="156.0" rx="3" fill="none" stroke="#B8860B" stroke-width="1" opacity="1" stroke-dasharray="3,2.5"/>
<rect x="373.0" y="90.0" width="30.0" height="144.0" rx="2" fill="#FBF0D5" stroke="none" stroke-width="0.8" opacity="0.7"/>
<path d="M82,126 Q102.0,99 122,126" stroke="#1266B0" stroke-width="0.8" fill="none" stroke-linecap="round" stroke-linejoin="round" opacity="0.45"/>
<path d="M82,202 Q102.0,229 122,202" stroke="#CE4125" stroke-width="0.8" fill="none" stroke-linecap="round" stroke-linejoin="round" opacity="0.45"/>
<path d="M82,126 Q128.0,92 174,126" stroke="#1266B0" stroke-width="0.8" fill="none" stroke-linecap="round" stroke-linejoin="round" opacity="0.45"/>
<path d="M82,202 Q128.0,236 174,202" stroke="#CE4125" stroke-width="0.8" fill="none" stroke-linecap="round" stroke-linejoin="round" opacity="0.45"/>
<path d="M82,126 Q154.0,85 226,126" stroke="#1266B0" stroke-width="0.8" fill="none" stroke-linecap="round" stroke-linejoin="round" opacity="0.45"/>
<path d="M82,202 Q154.0,243 226,202" stroke="#CE4125" stroke-width="0.8" fill="none" stroke-linecap="round" stroke-linejoin="round" opacity="0.45"/>
<path d="M134,126 Q154.0,99 174,126" stroke="#1266B0" stroke-width="0.8" fill="none" stroke-linecap="round" stroke-linejoin="round" opacity="0.45"/>
<path d="M134,202 Q154.0,229 174,202" stroke="#CE4125" stroke-width="0.8" fill="none" stroke-linecap="round" stroke-linejoin="round" opacity="0.45"/>
<path d="M134,126 Q180.0,92 226,126" stroke="#1266B0" stroke-width="0.8" fill="none" stroke-linecap="round" stroke-linejoin="round" opacity="0.45"/>
<path d="M134,202 Q180.0,236 226,202" stroke="#CE4125" stroke-width="0.8" fill="none" stroke-linecap="round" stroke-linejoin="round" opacity="0.45"/>
<path d="M134,126 Q206.0,85 278,126" stroke="#1266B0" stroke-width="0.8" fill="none" stroke-linecap="round" stroke-linejoin="round" opacity="0.45"/>
<path d="M134,202 Q206.0,243 278,202" stroke="#CE4125" stroke-width="0.8" fill="none" stroke-linecap="round" stroke-linejoin="round" opacity="0.45"/>
<path d="M186,126 Q206.0,99 226,126" stroke="#1266B0" stroke-width="0.8" fill="none" stroke-linecap="round" stroke-linejoin="round" opacity="0.45"/>
<path d="M186,202 Q206.0,229 226,202" stroke="#CE4125" stroke-width="0.8" fill="none" stroke-linecap="round" stroke-linejoin="round" opacity="0.45"/>
<path d="M186,126 Q232.0,92 278,126" stroke="#1266B0" stroke-width="0.8" fill="none" stroke-linecap="round" stroke-linejoin="round" opacity="0.45"/>
<path d="M186,202 Q232.0,236 278,202" stroke="#CE4125" stroke-width="0.8" fill="none" stroke-linecap="round" stroke-linejoin="round" opacity="0.45"/>
<path d="M186,126 Q258.0,85 330,126" stroke="#1266B0" stroke-width="0.8" fill="none" stroke-linecap="round" stroke-linejoin="round" opacity="0.45"/>
<path d="M186,202 Q258.0,243 330,202" stroke="#CE4125" stroke-width="0.8" fill="none" stroke-linecap="round" stroke-linejoin="round" opacity="0.45"/>
<path d="M238,126 Q258.0,99 278,126" stroke="#1266B0" stroke-width="0.8" fill="none" stroke-linecap="round" stroke-linejoin="round" opacity="0.45"/>
<path d="M238,202 Q258.0,229 278,202" stroke="#CE4125" stroke-width="0.8" fill="none" stroke-linecap="round" stroke-linejoin="round" opacity="0.45"/>
<path d="M238,126 Q284.0,92 330,126" stroke="#1266B0" stroke-width="0.8" fill="none" stroke-linecap="round" stroke-linejoin="round" opacity="0.45"/>
<path d="M238,202 Q284.0,236 330,202" stroke="#CE4125" stroke-width="0.8" fill="none" stroke-linecap="round" stroke-linejoin="round" opacity="0.45"/>
<path d="M238,126 Q310.0,85 382,126" stroke="#1266B0" stroke-width="0.8" fill="none" stroke-linecap="round" stroke-linejoin="round" opacity="0.45"/>
<path d="M238,202 Q310.0,243 382,202" stroke="#CE4125" stroke-width="0.8" fill="none" stroke-linecap="round" stroke-linejoin="round" opacity="0.45"/>
<path d="M290,126 Q310.0,99 330,126" stroke="#1266B0" stroke-width="0.8" fill="none" stroke-linecap="round" stroke-linejoin="round" opacity="0.45"/>
<path d="M290,202 Q310.0,229 330,202" stroke="#CE4125" stroke-width="0.8" fill="none" stroke-linecap="round" stroke-linejoin="round" opacity="0.45"/>
<path d="M290,126 Q362.0,85 434,126" stroke="#1266B0" stroke-width="0.8" fill="none" stroke-linecap="round" stroke-linejoin="round" opacity="0.45"/>
<path d="M290,202 Q362.0,243 434,202" stroke="#CE4125" stroke-width="0.8" fill="none" stroke-linecap="round" stroke-linejoin="round" opacity="0.45"/>
<path d="M342,126 Q362.0,99 382,126" stroke="#1266B0" stroke-width="0.8" fill="none" stroke-linecap="round" stroke-linejoin="round" opacity="0.45"/>
<path d="M342,202 Q362.0,229 382,202" stroke="#CE4125" stroke-width="0.8" fill="none" stroke-linecap="round" stroke-linejoin="round" opacity="0.45"/>
<path d="M342,126 Q388.0,92 434,126" stroke="#1266B0" stroke-width="0.8" fill="none" stroke-linecap="round" stroke-linejoin="round" opacity="0.45"/>
<path d="M342,202 Q388.0,236 434,202" stroke="#CE4125" stroke-width="0.8" fill="none" stroke-linecap="round" stroke-linejoin="round" opacity="0.45"/>
<path d="M394,126 Q414.0,99 434,126" stroke="#1266B0" stroke-width="0.8" fill="none" stroke-linecap="round" stroke-linejoin="round" opacity="0.45"/>
<path d="M394,202 Q414.0,229 434,202" stroke="#CE4125" stroke-width="0.8" fill="none" stroke-linecap="round" stroke-linejoin="round" opacity="0.45"/>
<path d="M394,126 Q440.0,92 486,126" stroke="#1266B0" stroke-width="0.8" fill="none" stroke-linecap="round" stroke-linejoin="round" opacity="0.45"/>
<path d="M394,202 Q440.0,236 486,202" stroke="#CE4125" stroke-width="0.8" fill="none" stroke-linecap="round" stroke-linejoin="round" opacity="0.45"/>
<path d="M446,126 Q466.0,99 486,126" stroke="#1266B0" stroke-width="0.8" fill="none" stroke-linecap="round" stroke-linejoin="round" opacity="0.45"/>
<path d="M446,202 Q466.0,229 486,202" stroke="#CE4125" stroke-width="0.8" fill="none" stroke-linecap="round" stroke-linejoin="round" opacity="0.45"/>
<path d="M446,126 Q518.0,85 590,126" stroke="#1266B0" stroke-width="0.8" fill="none" stroke-linecap="round" stroke-linejoin="round" opacity="0.45"/>
<path d="M446,202 Q518.0,243 590,202" stroke="#CE4125" stroke-width="0.8" fill="none" stroke-linecap="round" stroke-linejoin="round" opacity="0.45"/>
<path d="M498,126 Q518.0,99 538,126" stroke="#1266B0" stroke-width="0.8" fill="none" stroke-linecap="round" stroke-linejoin="round" opacity="0.45"/>
<path d="M498,202 Q518.0,229 538,202" stroke="#CE4125" stroke-width="0.8" fill="none" stroke-linecap="round" stroke-linejoin="round" opacity="0.45"/>
<path d="M498,126 Q544.0,92 590,126" stroke="#1266B0" stroke-width="0.8" fill="none" stroke-linecap="round" stroke-linejoin="round" opacity="0.45"/>
<path d="M498,202 Q544.0,236 590,202" stroke="#CE4125" stroke-width="0.8" fill="none" stroke-linecap="round" stroke-linejoin="round" opacity="0.45"/>
<path d="M498,126 Q570.0,85 642,126" stroke="#1266B0" stroke-width="0.8" fill="none" stroke-linecap="round" stroke-linejoin="round" opacity="0.45"/>
<path d="M498,202 Q570.0,243 642,202" stroke="#CE4125" stroke-width="0.8" fill="none" stroke-linecap="round" stroke-linejoin="round" opacity="0.45"/>
<path d="M550,126 Q596.0,92 642,126" stroke="#1266B0" stroke-width="0.8" fill="none" stroke-linecap="round" stroke-linejoin="round" opacity="0.45"/>
<path d="M550,202 Q596.0,236 642,202" stroke="#CE4125" stroke-width="0.8" fill="none" stroke-linecap="round" stroke-linejoin="round" opacity="0.45"/>
<path d="M550,126 Q622.0,85 694,126" stroke="#1266B0" stroke-width="0.8" fill="none" stroke-linecap="round" stroke-linejoin="round" opacity="0.45"/>
<path d="M550,202 Q622.0,243 694,202" stroke="#CE4125" stroke-width="0.8" fill="none" stroke-linecap="round" stroke-linejoin="round" opacity="0.45"/>
<path d="M602,126 Q622.0,99 642,126" stroke="#1266B0" stroke-width="0.8" fill="none" stroke-linecap="round" stroke-linejoin="round" opacity="0.45"/>
<path d="M602,202 Q622.0,229 642,202" stroke="#CE4125" stroke-width="0.8" fill="none" stroke-linecap="round" stroke-linejoin="round" opacity="0.45"/>
<path d="M602,126 Q648.0,92 694,126" stroke="#1266B0" stroke-width="0.8" fill="none" stroke-linecap="round" stroke-linejoin="round" opacity="0.45"/>
<path d="M602,202 Q648.0,236 694,202" stroke="#CE4125" stroke-width="0.8" fill="none" stroke-linecap="round" stroke-linejoin="round" opacity="0.45"/>
<path d="M654,126 Q674.0,99 694,126" stroke="#1266B0" stroke-width="0.8" fill="none" stroke-linecap="round" stroke-linejoin="round" opacity="0.45"/>
<path d="M654,202 Q674.0,229 694,202" stroke="#CE4125" stroke-width="0.8" fill="none" stroke-linecap="round" stroke-linejoin="round" opacity="0.45"/>
<circle cx="76.0" cy="132.0" r="9" fill="#1266B0" stroke="#1266B0" stroke-width="0"/>
<text x="76.0" y="135.0" class="n" text-anchor="middle" fill="#fff">r</text>
<circle cx="76.0" cy="196.0" r="9" fill="#CE4125" stroke="#CE4125" stroke-width="0"/>
<text x="76.0" y="199.0" class="n" text-anchor="middle" fill="#fff">a</text>
<text x="76.0" y="80.0" class="s" text-anchor="middle" fill="#6E7C8C">−20</text>
<circle cx="128.0" cy="132.0" r="9" fill="#1266B0" stroke="#1266B0" stroke-width="0"/>
<text x="128.0" y="135.0" class="n" text-anchor="middle" fill="#fff">r</text>
<circle cx="128.0" cy="196.0" r="9" fill="#CE4125" stroke="#CE4125" stroke-width="0"/>
<text x="128.0" y="199.0" class="n" text-anchor="middle" fill="#fff">a</text>
<circle cx="180.0" cy="132.0" r="9" fill="#1266B0" stroke="#1266B0" stroke-width="0"/>
<text x="180.0" y="135.0" class="n" text-anchor="middle" fill="#fff">r</text>
<circle cx="180.0" cy="196.0" r="9" fill="#CE4125" stroke="#CE4125" stroke-width="0"/>
<text x="180.0" y="199.0" class="n" text-anchor="middle" fill="#fff">a</text>
<circle cx="232.0" cy="132.0" r="9" fill="#1266B0" stroke="#1266B0" stroke-width="0"/>
<text x="232.0" y="135.0" class="n" text-anchor="middle" fill="#fff">r</text>
<circle cx="232.0" cy="196.0" r="9" fill="#CE4125" stroke="#CE4125" stroke-width="0"/>
<text x="232.0" y="199.0" class="n" text-anchor="middle" fill="#fff">a</text>
<circle cx="284.0" cy="132.0" r="9" fill="#1266B0" stroke="#1266B0" stroke-width="0"/>
<text x="284.0" y="135.0" class="n" text-anchor="middle" fill="#fff">r</text>
<circle cx="284.0" cy="196.0" r="9" fill="#CE4125" stroke="#CE4125" stroke-width="0"/>
<text x="284.0" y="199.0" class="n" text-anchor="middle" fill="#fff">a</text>
<text x="284.0" y="80.0" class="s" text-anchor="middle" fill="#6E7C8C">−2</text>
<circle cx="336.0" cy="132.0" r="9" fill="#1266B0" stroke="#1266B0" stroke-width="0"/>
<text x="336.0" y="135.0" class="n" text-anchor="middle" fill="#fff">r</text>
<circle cx="336.0" cy="196.0" r="9" fill="#CE4125" stroke="#CE4125" stroke-width="0"/>
<text x="336.0" y="199.0" class="n" text-anchor="middle" fill="#fff">a</text>
<text x="336.0" y="80.0" class="s" text-anchor="middle" fill="#6E7C8C">−1</text>
<circle cx="388.0" cy="132.0" r="9" fill="#1266B0" stroke="#1266B0" stroke-width="0"/>
<text x="388.0" y="135.0" class="n" text-anchor="middle" fill="#fff">r</text>
<circle cx="388.0" cy="196.0" r="9" fill="#CE4125" stroke="#CE4125" stroke-width="0"/>
<text x="388.0" y="199.0" class="n" text-anchor="middle" fill="#fff">a</text>
<text x="388.0" y="80.0" class="s" text-anchor="middle" fill="#B8860B">c</text>
<circle cx="440.0" cy="132.0" r="9" fill="#1266B0" stroke="#1266B0" stroke-width="0"/>
<text x="440.0" y="135.0" class="n" text-anchor="middle" fill="#fff">r</text>
<circle cx="440.0" cy="196.0" r="9" fill="#CE4125" stroke="#CE4125" stroke-width="0"/>
<text x="440.0" y="199.0" class="n" text-anchor="middle" fill="#fff">a</text>
<text x="440.0" y="80.0" class="s" text-anchor="middle" fill="#6E7C8C">+1</text>
<circle cx="492.0" cy="132.0" r="9" fill="#1266B0" stroke="#1266B0" stroke-width="0"/>
<text x="492.0" y="135.0" class="n" text-anchor="middle" fill="#fff">r</text>
<circle cx="492.0" cy="196.0" r="9" fill="#CE4125" stroke="#CE4125" stroke-width="0"/>
<text x="492.0" y="199.0" class="n" text-anchor="middle" fill="#fff">a</text>
<text x="492.0" y="80.0" class="s" text-anchor="middle" fill="#6E7C8C">+2</text>
<circle cx="544.0" cy="132.0" r="9" fill="#1266B0" stroke="#1266B0" stroke-width="0"/>
<text x="544.0" y="135.0" class="n" text-anchor="middle" fill="#fff">r</text>
<circle cx="544.0" cy="196.0" r="9" fill="#CE4125" stroke="#CE4125" stroke-width="0"/>
<text x="544.0" y="199.0" class="n" text-anchor="middle" fill="#fff">a</text>
<circle cx="596.0" cy="132.0" r="9" fill="#1266B0" stroke="#1266B0" stroke-width="0"/>
<text x="596.0" y="135.0" class="n" text-anchor="middle" fill="#fff">r</text>
<circle cx="596.0" cy="196.0" r="9" fill="#CE4125" stroke="#CE4125" stroke-width="0"/>
<text x="596.0" y="199.0" class="n" text-anchor="middle" fill="#fff">a</text>
<circle cx="648.0" cy="132.0" r="9" fill="#1266B0" stroke="#1266B0" stroke-width="0"/>
<text x="648.0" y="135.0" class="n" text-anchor="middle" fill="#fff">r</text>
<circle cx="648.0" cy="196.0" r="9" fill="#CE4125" stroke="#CE4125" stroke-width="0"/>
<text x="648.0" y="199.0" class="n" text-anchor="middle" fill="#fff">a</text>
<circle cx="700.0" cy="132.0" r="9" fill="#1266B0" stroke="#1266B0" stroke-width="0"/>
<text x="700.0" y="135.0" class="n" text-anchor="middle" fill="#fff">r</text>
<circle cx="700.0" cy="196.0" r="9" fill="#CE4125" stroke="#CE4125" stroke-width="0"/>
<text x="700.0" y="199.0" class="n" text-anchor="middle" fill="#fff">a</text>
<text x="700.0" y="80.0" class="s" text-anchor="middle" fill="#6E7C8C">+20</text>
<line x1="343.0" y1="138.0" x2="433.0" y2="190.0" stroke="#6E7C8C" stroke-width="1" stroke-linecap="round" stroke-dasharray="2.5,2"/>
<text x="54.0" y="135.0" class="t" text-anchor="middle">…</text>
<text x="722.0" y="135.0" class="t" text-anchor="middle">…</text>
<text x="388.0" y="254.0" class="sb" text-anchor="middle" fill="#B8860B">centre zone, predictions kept</text>
<line x1="16.0" y1="278.0" x2="32.0" y2="278.0" stroke="#1266B0" stroke-width="1.4" stroke-linecap="round"/>
<text x="37.0" y="281.0" class="s" text-anchor="start">hap-1 allele edges</text>
<line x1="139.2" y1="278.0" x2="155.2" y2="278.0" stroke="#CE4125" stroke-width="1.4" stroke-linecap="round"/>
<text x="160.2" y="281.0" class="s" text-anchor="start">hap-2 allele edges</text>
<line x1="262.4" y1="278.0" x2="278.4" y2="278.0" stroke="#6E7C8C" stroke-width="1.4" stroke-linecap="round" stroke-dasharray="2.5,2"/>
<text x="283.4" y="281.0" class="s" text-anchor="start">cross-haplotype edge</text>
<text x="400.4" y="281.0" class="s" text-anchor="start" fill="#16233D">≤ 41 variants, ≤ 82 allele nodes</text>
<line x1="16.0" y1="300.0" x2="764.0" y2="300.0" stroke="#C7D1DB" stroke-width="0.8" stroke-linecap="butt"/>
<text x="16.0" y="324.0" class="pl" text-anchor="start">b</text>
<text x="30.0" y="324.0" class="h" text-anchor="start">Bridge-vertex feature</text>
<line x1="46.0" y1="348.0" x2="46.0" y2="376.0" stroke="#C7D1DB" stroke-width="1.2" stroke-linecap="round"/>
<line x1="46.0" y1="376.0" x2="78.0" y2="362.0" stroke="#C7D1DB" stroke-width="1.2" stroke-linecap="round"/>
<line x1="78.0" y1="362.0" x2="46.0" y2="348.0" stroke="#C7D1DB" stroke-width="1.2" stroke-linecap="round"/>
<line x1="176.0" y1="348.0" x2="176.0" y2="376.0" stroke="#C7D1DB" stroke-width="1.2" stroke-linecap="round"/>
<line x1="176.0" y1="376.0" x2="144.0" y2="362.0" stroke="#C7D1DB" stroke-width="1.2" stroke-linecap="round"/>
<line x1="144.0" y1="362.0" x2="176.0" y2="348.0" stroke="#C7D1DB" stroke-width="1.2" stroke-linecap="round"/>
<line x1="78.0" y1="362.0" x2="111.0" y2="362.0" stroke="#B8860B" stroke-width="1.2" stroke-linecap="round"/>
<line x1="111.0" y1="362.0" x2="144.0" y2="362.0" stroke="#B8860B" stroke-width="1.2" stroke-linecap="round"/>
<circle cx="46.0" cy="348.0" r="5.5" fill="#fff" stroke="#6E7C8C" stroke-width="1.2"/>
<circle cx="46.0" cy="376.0" r="5.5" fill="#fff" stroke="#6E7C8C" stroke-width="1.2"/>
<circle cx="78.0" cy="362.0" r="5.5" fill="#fff" stroke="#6E7C8C" stroke-width="1.2"/>
<circle cx="176.0" cy="348.0" r="5.5" fill="#fff" stroke="#6E7C8C" stroke-width="1.2"/>
<circle cx="176.0" cy="376.0" r="5.5" fill="#fff" stroke="#6E7C8C" stroke-width="1.2"/>
<circle cx="144.0" cy="362.0" r="5.5" fill="#fff" stroke="#6E7C8C" stroke-width="1.2"/>
<circle cx="111.0" cy="362.0" r="5.5" fill="#B8860B" stroke="#B8860B" stroke-width="0"/>
<text x="206.0" y="358.0" class="s" text-anchor="start">removing this variant disconnects the window</text>
<text x="206.0" y="372.0" class="sb" text-anchor="start" fill="#B8860B">→ is_bridge = 1</text>
<text x="452.0" y="324.0" class="pl" text-anchor="start">c</text>
<text x="466.0" y="324.0" class="h" text-anchor="start">Centre-zone mask</text>
<text x="466.0" y="352.0" class="eq" text-anchor="start" fill="#16233D">r = |pos − pos<tspan font-size="72%" dy="2.6">c</tspan><tspan dy="-2.6"></tspan>| / max offset in the window</text>
<text x="466.0" y="374.0" class="eq" text-anchor="start" fill="#16233D">kept if  r ≤ min(1, 10 / round(20 · r<tspan font-size="72%" dy="2.6">max</tspan><tspan dy="-2.6"></tspan>))</text>
</svg>